<mxfile host="drawio-plugin" modified="2022-05-05T08:02:48.425Z" agent="5.0 (Macintosh; Intel Mac OS X 12_3_0) AppleWebKit/537.36 (KHTML, like Gecko) Chrome/89.0.4389.114 Safari/537.36" etag="RnQHxGyiVe9WSYe9MziM" version="15.5.4" type="embed"><diagram id="ZTYAM5nUB5pUR9vG6ECU" name="Страница 1"><mxGraphModel dx="598" dy="649" grid="1" gridSize="10" guides="1" tooltips="1" connect="1" arrows="1" fold="1" page="1" pageScale="1" pageWidth="827" pageHeight="1169" math="0" shadow="0"><root><mxCell id="0"/><mxCell id="1" parent="0"/><mxCell id="u563fyuMuvnJMgSkGKe7-21" value="" style="rounded=0;whiteSpace=wrap;html=1;" parent="1" vertex="1"><mxGeometry x="220" y="10" width="270" height="620" as="geometry"/></mxCell><mxCell id="u563fyuMuvnJMgSkGKe7-16" value="" style="rounded=0;whiteSpace=wrap;html=1;" parent="1" vertex="1"><mxGeometry x="514" y="10" width="300" height="620" as="geometry"/></mxCell><mxCell id="u563fyuMuvnJMgSkGKe7-11" style="edgeStyle=orthogonalEdgeStyle;rounded=0;orthogonalLoop=1;jettySize=auto;html=1;exitX=1;exitY=0.25;exitDx=0;exitDy=0;entryX=0;entryY=0.5;entryDx=0;entryDy=0;" parent="1" source="u563fyuMuvnJMgSkGKe7-1" target="u563fyuMuvnJMgSkGKe7-3" edge="1"><mxGeometry relative="1" as="geometry"/></mxCell><mxCell id="u563fyuMuvnJMgSkGKe7-13" style="edgeStyle=orthogonalEdgeStyle;rounded=0;orthogonalLoop=1;jettySize=auto;html=1;exitX=1;exitY=0.75;exitDx=0;exitDy=0;entryX=0;entryY=0.5;entryDx=0;entryDy=0;" parent="1" source="u563fyuMuvnJMgSkGKe7-1" target="u563fyuMuvnJMgSkGKe7-5" edge="1"><mxGeometry relative="1" as="geometry"/></mxCell><mxCell id="u563fyuMuvnJMgSkGKe7-28" style="edgeStyle=orthogonalEdgeStyle;rounded=0;orthogonalLoop=1;jettySize=auto;html=1;exitX=0.5;exitY=0;exitDx=0;exitDy=0;entryX=0.5;entryY=1;entryDx=0;entryDy=0;strokeWidth=1;dashed=1;dashPattern=1 1;" parent="1" source="u563fyuMuvnJMgSkGKe7-1" target="u563fyuMuvnJMgSkGKe7-25" edge="1"><mxGeometry relative="1" as="geometry"/></mxCell><mxCell id="u563fyuMuvnJMgSkGKe7-1" value="" style="rounded=0;whiteSpace=wrap;html=1;fillColor=#d5e8d4;strokeColor=#82b366;" parent="1" vertex="1"><mxGeometry x="270" y="390" width="120" height="100" as="geometry"/></mxCell><mxCell id="u563fyuMuvnJMgSkGKe7-2" value="API" style="text;html=1;strokeColor=none;fillColor=none;align=center;verticalAlign=middle;whiteSpace=wrap;rounded=0;" parent="1" vertex="1"><mxGeometry x="304" y="425" width="60" height="30" as="geometry"/></mxCell><mxCell id="u563fyuMuvnJMgSkGKe7-10" style="edgeStyle=orthogonalEdgeStyle;rounded=0;orthogonalLoop=1;jettySize=auto;html=1;exitX=0.5;exitY=0;exitDx=0;exitDy=0;entryX=0.5;entryY=1;entryDx=0;entryDy=0;" parent="1" source="u563fyuMuvnJMgSkGKe7-3" target="u563fyuMuvnJMgSkGKe7-7" edge="1"><mxGeometry relative="1" as="geometry"/></mxCell><mxCell id="u563fyuMuvnJMgSkGKe7-12" style="edgeStyle=orthogonalEdgeStyle;rounded=0;orthogonalLoop=1;jettySize=auto;html=1;exitX=0.5;exitY=1;exitDx=0;exitDy=0;" parent="1" source="u563fyuMuvnJMgSkGKe7-3" target="u563fyuMuvnJMgSkGKe7-5" edge="1"><mxGeometry relative="1" as="geometry"/></mxCell><mxCell id="u563fyuMuvnJMgSkGKe7-3" value="" style="rounded=0;whiteSpace=wrap;html=1;fillColor=#dae8fc;strokeColor=#6c8ebf;" parent="1" vertex="1"><mxGeometry x="604" y="270" width="120" height="100" as="geometry"/></mxCell><mxCell id="u563fyuMuvnJMgSkGKe7-4" value="ORCHESTRATOR" style="text;html=1;strokeColor=none;fillColor=none;align=center;verticalAlign=middle;whiteSpace=wrap;rounded=0;" parent="1" vertex="1"><mxGeometry x="634" y="305" width="60" height="30" as="geometry"/></mxCell><mxCell id="u563fyuMuvnJMgSkGKe7-5" value="" style="rounded=0;whiteSpace=wrap;html=1;fillColor=#dae8fc;strokeColor=#6c8ebf;" parent="1" vertex="1"><mxGeometry x="604" y="490" width="120" height="100" as="geometry"/></mxCell><mxCell id="u563fyuMuvnJMgSkGKe7-6" value="STORAGE" style="text;html=1;strokeColor=none;fillColor=none;align=center;verticalAlign=middle;whiteSpace=wrap;rounded=0;" parent="1" vertex="1"><mxGeometry x="634" y="525" width="60" height="30" as="geometry"/></mxCell><mxCell id="u563fyuMuvnJMgSkGKe7-7" value="" style="rounded=0;whiteSpace=wrap;html=1;fillColor=#dae8fc;strokeColor=#6c8ebf;" parent="1" vertex="1"><mxGeometry x="604" y="70" width="120" height="100" as="geometry"/></mxCell><mxCell id="u563fyuMuvnJMgSkGKe7-8" value="EXECUTOR" style="text;html=1;strokeColor=none;fillColor=none;align=center;verticalAlign=middle;whiteSpace=wrap;rounded=0;" parent="1" vertex="1"><mxGeometry x="634" y="105" width="60" height="30" as="geometry"/></mxCell><mxCell id="u563fyuMuvnJMgSkGKe7-22" style="edgeStyle=orthogonalEdgeStyle;rounded=0;orthogonalLoop=1;jettySize=auto;html=1;exitX=1;exitY=0.5;exitDx=0;exitDy=0;entryX=0;entryY=0.5;entryDx=0;entryDy=0;" parent="1" source="u563fyuMuvnJMgSkGKe7-14" target="u563fyuMuvnJMgSkGKe7-1" edge="1"><mxGeometry relative="1" as="geometry"/></mxCell><mxCell id="u563fyuMuvnJMgSkGKe7-14" value="" style="ellipse;whiteSpace=wrap;html=1;fillColor=#fff2cc;strokeColor=#d6b656;" parent="1" vertex="1"><mxGeometry x="60" y="400" width="100" height="80" as="geometry"/></mxCell><mxCell id="u563fyuMuvnJMgSkGKe7-15" value="CLIENT" style="text;html=1;strokeColor=none;fillColor=none;align=center;verticalAlign=middle;whiteSpace=wrap;rounded=0;" parent="1" vertex="1"><mxGeometry x="80" y="425" width="60" height="30" as="geometry"/></mxCell><mxCell id="u563fyuMuvnJMgSkGKe7-19" value="РАСЧËТНАЯ ЧАСТЬ" style="text;html=1;strokeColor=none;fillColor=none;align=center;verticalAlign=middle;whiteSpace=wrap;rounded=0;" parent="1" vertex="1"><mxGeometry x="581" y="20" width="166" height="30" as="geometry"/></mxCell><mxCell id="u563fyuMuvnJMgSkGKe7-23" value="" style="endArrow=none;dashed=1;html=1;rounded=0;strokeWidth=4;" parent="1" edge="1"><mxGeometry width="50" height="50" relative="1" as="geometry"><mxPoint x="180" y="640" as="sourcePoint"/><mxPoint x="180" y="10" as="targetPoint"/></mxGeometry></mxCell><mxCell id="u563fyuMuvnJMgSkGKe7-24" value="БИЗНЕС ЧАСТЬ" style="text;html=1;strokeColor=none;fillColor=none;align=center;verticalAlign=middle;whiteSpace=wrap;rounded=0;" parent="1" vertex="1"><mxGeometry x="304" y="20" width="110" height="30" as="geometry"/></mxCell><mxCell id="u563fyuMuvnJMgSkGKe7-25" value="" style="rounded=0;whiteSpace=wrap;html=1;dashed=1;fillColor=#f5f5f5;fontColor=#333333;strokeColor=#666666;" parent="1" vertex="1"><mxGeometry x="270" y="180" width="142" height="90" as="geometry"/></mxCell><mxCell id="u563fyuMuvnJMgSkGKe7-26" value="Остальные бизнес-модули системы" style="text;html=1;strokeColor=none;fillColor=none;align=center;verticalAlign=middle;whiteSpace=wrap;rounded=0;dashed=1;" parent="1" vertex="1"><mxGeometry x="290" y="210" width="100" height="30" as="geometry"/></mxCell><mxCell id="u563fyuMuvnJMgSkGKe7-29" value="*" style="text;html=1;strokeColor=none;fillColor=none;align=center;verticalAlign=middle;whiteSpace=wrap;rounded=0;dashed=1;fontSize=27;" parent="1" vertex="1"><mxGeometry x="390" y="180" width="60" height="30" as="geometry"/></mxCell><mxCell id="u563fyuMuvnJMgSkGKe7-30" value="nd_plan_model" style="text;html=1;strokeColor=none;fillColor=none;align=center;verticalAlign=middle;whiteSpace=wrap;rounded=0;dashed=1;fontSize=12;" parent="1" vertex="1"><mxGeometry x="687" y="200" width="60" height="30" as="geometry"/></mxCell><mxCell id="2" value="nd_plan_model" style="text;html=1;strokeColor=none;fillColor=none;align=center;verticalAlign=middle;whiteSpace=wrap;rounded=0;dashed=1;fontSize=12;" vertex="1" parent="1"><mxGeometry x="687" y="425" width="60" height="30" as="geometry"/></mxCell><mxCell id="3" value="nd_plan_model" style="text;html=1;strokeColor=none;fillColor=none;align=center;verticalAlign=middle;whiteSpace=wrap;rounded=0;dashed=1;fontSize=12;" vertex="1" parent="1"><mxGeometry x="414" y="430" width="60" height="30" as="geometry"/></mxCell></root></mxGraphModel></diagram></mxfile>